<svg xmlns="http://www.w3.org/2000/svg" xmlns:xlink="http://www.w3.org/1999/xlink" width="400" zoomAndPan="magnify" viewBox="0 0 300 149.999998" height="200" preserveAspectRatio="xMidYMid meet" version="1.0"><defs><g/></defs><g fill="#ffffff" fill-opacity="1"><g transform="translate(0.498376, 112.693431)"><g><path d="M 50.1875 -1.359375 C 50.1875 -1.066406 50.113281 -0.820312 49.96875 -0.625 C 49.820312 -0.425781 49.585938 -0.253906 49.265625 -0.109375 C 48.941406 0.0351562 48.488281 0.144531 47.90625 0.21875 C 47.332031 0.289062 46.613281 0.328125 45.75 0.328125 C 44.84375 0.328125 44.101562 0.289062 43.53125 0.21875 C 42.957031 0.144531 42.503906 0.0351562 42.171875 -0.109375 C 41.847656 -0.253906 41.613281 -0.425781 41.46875 -0.625 C 41.332031 -0.820312 41.265625 -1.066406 41.265625 -1.359375 L 41.265625 -29.84375 C 41.265625 -32.625 41.046875 -34.859375 40.609375 -36.546875 C 40.179688 -38.242188 39.550781 -39.707031 38.71875 -40.9375 C 37.882812 -42.164062 36.8125 -43.101562 35.5 -43.75 C 34.1875 -44.394531 32.664062 -44.71875 30.9375 -44.71875 C 28.695312 -44.71875 26.457031 -43.925781 24.21875 -42.34375 C 21.988281 -40.757812 19.648438 -38.429688 17.203125 -35.359375 L 17.203125 -1.359375 C 17.203125 -1.066406 17.128906 -0.820312 16.984375 -0.625 C 16.835938 -0.425781 16.601562 -0.253906 16.28125 -0.109375 C 15.957031 0.0351562 15.503906 0.144531 14.921875 0.21875 C 14.347656 0.289062 13.609375 0.328125 12.703125 0.328125 C 11.835938 0.328125 11.117188 0.289062 10.546875 0.21875 C 9.972656 0.144531 9.515625 0.0351562 9.171875 -0.109375 C 8.828125 -0.253906 8.59375 -0.425781 8.46875 -0.625 C 8.34375 -0.820312 8.28125 -1.066406 8.28125 -1.359375 L 8.28125 -73.59375 C 8.28125 -73.882812 8.34375 -74.140625 8.46875 -74.359375 C 8.59375 -74.578125 8.828125 -74.753906 9.171875 -74.890625 C 9.515625 -75.035156 9.972656 -75.144531 10.546875 -75.21875 C 11.117188 -75.289062 11.835938 -75.328125 12.703125 -75.328125 C 13.609375 -75.328125 14.347656 -75.289062 14.921875 -75.21875 C 15.503906 -75.144531 15.957031 -75.035156 16.28125 -74.890625 C 16.601562 -74.753906 16.835938 -74.578125 16.984375 -74.359375 C 17.128906 -74.140625 17.203125 -73.882812 17.203125 -73.59375 L 17.203125 -44.453125 C 19.753906 -47.148438 22.328125 -49.15625 24.921875 -50.46875 C 27.523438 -51.789062 30.140625 -52.453125 32.765625 -52.453125 C 36.015625 -52.453125 38.75 -51.898438 40.96875 -50.796875 C 43.1875 -49.703125 44.976562 -48.234375 46.34375 -46.390625 C 47.71875 -44.554688 48.703125 -42.40625 49.296875 -39.9375 C 49.890625 -37.46875 50.1875 -34.484375 50.1875 -30.984375 Z M 50.1875 -1.359375 "/></g></g></g><g fill="#ffffff" fill-opacity="1"><g transform="translate(59.681986, 112.693431)"><g><path d="M 36.71875 -46.828125 C 36.71875 -46.035156 36.695312 -45.367188 36.65625 -44.828125 C 36.625 -44.285156 36.550781 -43.859375 36.4375 -43.546875 C 36.332031 -43.242188 36.195312 -43.007812 36.03125 -42.84375 C 35.875 -42.6875 35.648438 -42.609375 35.359375 -42.609375 C 35.078125 -42.609375 34.726562 -42.6875 34.3125 -42.84375 C 33.894531 -43.007812 33.425781 -43.175781 32.90625 -43.34375 C 32.382812 -43.507812 31.796875 -43.660156 31.140625 -43.796875 C 30.492188 -43.941406 29.796875 -44.015625 29.046875 -44.015625 C 28.140625 -44.015625 27.253906 -43.832031 26.390625 -43.46875 C 25.523438 -43.113281 24.613281 -42.519531 23.65625 -41.6875 C 22.695312 -40.863281 21.695312 -39.765625 20.65625 -38.390625 C 19.613281 -37.023438 18.460938 -35.347656 17.203125 -33.359375 L 17.203125 -1.359375 C 17.203125 -1.066406 17.128906 -0.820312 16.984375 -0.625 C 16.835938 -0.425781 16.601562 -0.253906 16.28125 -0.109375 C 15.957031 0.0351562 15.503906 0.144531 14.921875 0.21875 C 14.347656 0.289062 13.609375 0.328125 12.703125 0.328125 C 11.835938 0.328125 11.117188 0.289062 10.546875 0.21875 C 9.972656 0.144531 9.515625 0.0351562 9.171875 -0.109375 C 8.828125 -0.253906 8.59375 -0.425781 8.46875 -0.625 C 8.34375 -0.820312 8.28125 -1.066406 8.28125 -1.359375 L 8.28125 -50.015625 C 8.28125 -50.304688 8.332031 -50.550781 8.4375 -50.75 C 8.539062 -50.945312 8.753906 -51.125 9.078125 -51.28125 C 9.410156 -51.445312 9.828125 -51.554688 10.328125 -51.609375 C 10.828125 -51.671875 11.492188 -51.703125 12.328125 -51.703125 C 13.117188 -51.703125 13.773438 -51.671875 14.296875 -51.609375 C 14.828125 -51.554688 15.234375 -51.445312 15.515625 -51.28125 C 15.804688 -51.125 16.015625 -50.945312 16.140625 -50.75 C 16.265625 -50.550781 16.328125 -50.304688 16.328125 -50.015625 L 16.328125 -42.9375 C 17.660156 -44.882812 18.910156 -46.46875 20.078125 -47.6875 C 21.253906 -48.914062 22.363281 -49.878906 23.40625 -50.578125 C 24.457031 -51.285156 25.492188 -51.773438 26.515625 -52.046875 C 27.546875 -52.316406 28.585938 -52.453125 29.640625 -52.453125 C 30.109375 -52.453125 30.640625 -52.425781 31.234375 -52.375 C 31.828125 -52.320312 32.445312 -52.222656 33.09375 -52.078125 C 33.738281 -51.929688 34.320312 -51.765625 34.84375 -51.578125 C 35.375 -51.398438 35.742188 -51.222656 35.953125 -51.046875 C 36.171875 -50.867188 36.316406 -50.695312 36.390625 -50.53125 C 36.460938 -50.375 36.523438 -50.164062 36.578125 -49.90625 C 36.640625 -49.65625 36.675781 -49.285156 36.6875 -48.796875 C 36.707031 -48.316406 36.71875 -47.660156 36.71875 -46.828125 Z M 36.71875 -46.828125 "/></g></g></g><g fill="#ffffff" fill-opacity="1"><g transform="translate(99.289718, 112.693431)"><g><path d="M 33.578125 -4.921875 C 33.578125 -3.878906 33.503906 -3.050781 33.359375 -2.4375 C 33.222656 -1.820312 33.007812 -1.367188 32.71875 -1.078125 C 32.425781 -0.796875 31.988281 -0.523438 31.40625 -0.265625 C 30.832031 -0.015625 30.175781 0.1875 29.4375 0.34375 C 28.707031 0.507812 27.925781 0.644531 27.09375 0.75 C 26.257812 0.863281 25.429688 0.921875 24.609375 0.921875 C 22.078125 0.921875 19.910156 0.585938 18.109375 -0.078125 C 16.304688 -0.742188 14.828125 -1.753906 13.671875 -3.109375 C 12.523438 -4.460938 11.691406 -6.175781 11.171875 -8.25 C 10.648438 -10.320312 10.390625 -12.765625 10.390625 -15.578125 L 10.390625 -44.015625 L 3.5625 -44.015625 C 3.03125 -44.015625 2.597656 -44.300781 2.265625 -44.875 C 1.941406 -45.457031 1.78125 -46.398438 1.78125 -47.703125 C 1.78125 -48.378906 1.828125 -48.953125 1.921875 -49.421875 C 2.015625 -49.890625 2.128906 -50.273438 2.265625 -50.578125 C 2.410156 -50.890625 2.597656 -51.109375 2.828125 -51.234375 C 3.066406 -51.359375 3.332031 -51.421875 3.625 -51.421875 L 10.390625 -51.421875 L 10.390625 -63 C 10.390625 -63.25 10.453125 -63.484375 10.578125 -63.703125 C 10.703125 -63.921875 10.929688 -64.109375 11.265625 -64.265625 C 11.609375 -64.429688 12.066406 -64.550781 12.640625 -64.625 C 13.222656 -64.695312 13.945312 -64.734375 14.8125 -64.734375 C 15.71875 -64.734375 16.457031 -64.695312 17.03125 -64.625 C 17.613281 -64.550781 18.066406 -64.429688 18.390625 -64.265625 C 18.710938 -64.109375 18.945312 -63.921875 19.09375 -63.703125 C 19.238281 -63.484375 19.3125 -63.25 19.3125 -63 L 19.3125 -51.421875 L 31.796875 -51.421875 C 32.085938 -51.421875 32.335938 -51.359375 32.546875 -51.234375 C 32.765625 -51.109375 32.953125 -50.890625 33.109375 -50.578125 C 33.273438 -50.273438 33.394531 -49.890625 33.46875 -49.421875 C 33.539062 -48.953125 33.578125 -48.378906 33.578125 -47.703125 C 33.578125 -46.398438 33.414062 -45.457031 33.09375 -44.875 C 32.769531 -44.300781 32.335938 -44.015625 31.796875 -44.015625 L 19.3125 -44.015625 L 19.3125 -16.875 C 19.3125 -13.519531 19.804688 -10.984375 20.796875 -9.265625 C 21.785156 -7.554688 23.5625 -6.703125 26.125 -6.703125 C 26.945312 -6.703125 27.679688 -6.78125 28.328125 -6.9375 C 28.984375 -7.101562 29.5625 -7.273438 30.0625 -7.453125 C 30.570312 -7.640625 31.003906 -7.8125 31.359375 -7.96875 C 31.722656 -8.132812 32.050781 -8.21875 32.34375 -8.21875 C 32.519531 -8.21875 32.6875 -8.171875 32.84375 -8.078125 C 33.007812 -7.992188 33.132812 -7.820312 33.21875 -7.5625 C 33.3125 -7.3125 33.394531 -6.96875 33.46875 -6.53125 C 33.539062 -6.101562 33.578125 -5.566406 33.578125 -4.921875 Z M 33.578125 -4.921875 "/></g></g></g><g fill="#ffffff" fill-opacity="1"><g transform="translate(137.383293, 112.693431)"><g><path d="M 49.8125 -27.796875 C 49.8125 -26.390625 49.457031 -25.390625 48.75 -24.796875 C 48.050781 -24.203125 47.25 -23.90625 46.34375 -23.90625 L 14.4375 -23.90625 C 14.4375 -21.195312 14.707031 -18.757812 15.25 -16.59375 C 15.789062 -14.4375 16.691406 -12.582031 17.953125 -11.03125 C 19.210938 -9.476562 20.851562 -8.285156 22.875 -7.453125 C 24.894531 -6.628906 27.363281 -6.21875 30.28125 -6.21875 C 32.59375 -6.21875 34.648438 -6.40625 36.453125 -6.78125 C 38.253906 -7.164062 39.8125 -7.59375 41.125 -8.0625 C 42.4375 -8.53125 43.515625 -8.953125 44.359375 -9.328125 C 45.210938 -9.703125 45.859375 -9.890625 46.296875 -9.890625 C 46.546875 -9.890625 46.769531 -9.828125 46.96875 -9.703125 C 47.164062 -9.578125 47.316406 -9.390625 47.421875 -9.140625 C 47.535156 -8.890625 47.617188 -8.535156 47.671875 -8.078125 C 47.722656 -7.628906 47.75 -7.082031 47.75 -6.4375 C 47.75 -5.96875 47.726562 -5.5625 47.6875 -5.21875 C 47.65625 -4.875 47.613281 -4.566406 47.5625 -4.296875 C 47.507812 -4.023438 47.414062 -3.78125 47.28125 -3.5625 C 47.15625 -3.351562 46.992188 -3.148438 46.796875 -2.953125 C 46.597656 -2.753906 46.015625 -2.425781 45.046875 -1.96875 C 44.078125 -1.519531 42.816406 -1.078125 41.265625 -0.640625 C 39.710938 -0.210938 37.914062 0.171875 35.875 0.515625 C 33.84375 0.859375 31.671875 1.03125 29.359375 1.03125 C 25.359375 1.03125 21.851562 0.472656 18.84375 -0.640625 C 15.832031 -1.765625 13.300781 -3.425781 11.25 -5.625 C 9.195312 -7.820312 7.644531 -10.578125 6.59375 -13.890625 C 5.550781 -17.210938 5.03125 -21.070312 5.03125 -25.46875 C 5.03125 -29.65625 5.570312 -33.414062 6.65625 -36.75 C 7.738281 -40.082031 9.296875 -42.910156 11.328125 -45.234375 C 13.367188 -47.554688 15.828125 -49.335938 18.703125 -50.578125 C 21.585938 -51.828125 24.816406 -52.453125 28.390625 -52.453125 C 32.210938 -52.453125 35.46875 -51.835938 38.15625 -50.609375 C 40.84375 -49.390625 43.050781 -47.742188 44.78125 -45.671875 C 46.507812 -43.597656 47.78125 -41.160156 48.59375 -38.359375 C 49.40625 -35.566406 49.8125 -32.585938 49.8125 -29.421875 Z M 40.828125 -30.453125 C 40.929688 -35.128906 39.894531 -38.800781 37.71875 -41.46875 C 35.539062 -44.144531 32.304688 -45.484375 28.015625 -45.484375 C 25.816406 -45.484375 23.882812 -45.066406 22.21875 -44.234375 C 20.5625 -43.398438 19.175781 -42.296875 18.0625 -40.921875 C 16.945312 -39.554688 16.082031 -37.960938 15.46875 -36.140625 C 14.851562 -34.328125 14.507812 -32.429688 14.4375 -30.453125 Z M 40.828125 -30.453125 "/></g></g></g><g fill="#ffffff" fill-opacity="1"><g transform="translate(193.484502, 112.693431)"><g><path d="M 43.265625 -8.765625 C 43.265625 -8.148438 43.242188 -7.613281 43.203125 -7.15625 C 43.171875 -6.707031 43.109375 -6.328125 43.015625 -6.015625 C 42.929688 -5.710938 42.820312 -5.441406 42.6875 -5.203125 C 42.5625 -4.972656 42.273438 -4.632812 41.828125 -4.1875 C 41.378906 -3.738281 40.613281 -3.179688 39.53125 -2.515625 C 38.445312 -1.847656 37.226562 -1.253906 35.875 -0.734375 C 34.53125 -0.210938 33.0625 0.207031 31.46875 0.53125 C 29.882812 0.863281 28.242188 1.03125 26.546875 1.03125 C 23.054688 1.03125 19.957031 0.453125 17.25 -0.703125 C 14.539062 -1.859375 12.273438 -3.539062 10.453125 -5.75 C 8.640625 -7.96875 7.253906 -10.691406 6.296875 -13.921875 C 5.335938 -17.148438 4.859375 -20.875 4.859375 -25.09375 C 4.859375 -29.882812 5.441406 -34 6.609375 -37.4375 C 7.785156 -40.882812 9.394531 -43.707031 11.4375 -45.90625 C 13.476562 -48.101562 15.875 -49.734375 18.625 -50.796875 C 21.382812 -51.867188 24.367188 -52.40625 27.578125 -52.40625 C 29.128906 -52.40625 30.632812 -52.257812 32.09375 -51.96875 C 33.550781 -51.675781 34.894531 -51.296875 36.125 -50.828125 C 37.351562 -50.359375 38.441406 -49.816406 39.390625 -49.203125 C 40.347656 -48.597656 41.039062 -48.078125 41.46875 -47.640625 C 41.90625 -47.210938 42.203125 -46.867188 42.359375 -46.609375 C 42.523438 -46.359375 42.660156 -46.0625 42.765625 -45.71875 C 42.878906 -45.375 42.953125 -44.984375 42.984375 -44.546875 C 43.023438 -44.117188 43.046875 -43.582031 43.046875 -42.9375 C 43.046875 -41.53125 42.882812 -40.546875 42.5625 -39.984375 C 42.238281 -39.429688 41.84375 -39.15625 41.375 -39.15625 C 40.832031 -39.15625 40.207031 -39.453125 39.5 -40.046875 C 38.800781 -40.640625 37.910156 -41.296875 36.828125 -42.015625 C 35.742188 -42.734375 34.4375 -43.390625 32.90625 -43.984375 C 31.375 -44.585938 29.5625 -44.890625 27.46875 -44.890625 C 23.175781 -44.890625 19.882812 -43.238281 17.59375 -39.9375 C 15.3125 -36.632812 14.171875 -31.847656 14.171875 -25.578125 C 14.171875 -22.441406 14.46875 -19.691406 15.0625 -17.328125 C 15.65625 -14.972656 16.523438 -13 17.671875 -11.40625 C 18.828125 -9.820312 20.242188 -8.640625 21.921875 -7.859375 C 23.597656 -7.085938 25.519531 -6.703125 27.6875 -6.703125 C 29.738281 -6.703125 31.539062 -7.023438 33.09375 -7.671875 C 34.644531 -8.328125 35.988281 -9.039062 37.125 -9.8125 C 38.257812 -10.59375 39.210938 -11.296875 39.984375 -11.921875 C 40.765625 -12.554688 41.367188 -12.875 41.796875 -12.875 C 42.054688 -12.875 42.273438 -12.800781 42.453125 -12.65625 C 42.628906 -12.507812 42.78125 -12.265625 42.90625 -11.921875 C 43.03125 -11.578125 43.117188 -11.144531 43.171875 -10.625 C 43.234375 -10.101562 43.265625 -9.484375 43.265625 -8.765625 Z M 43.265625 -8.765625 "/></g></g></g><g fill="#ffffff" fill-opacity="1"><g transform="translate(241.311929, 112.693431)"><g><path d="M 50.1875 -1.359375 C 50.1875 -1.066406 50.113281 -0.820312 49.96875 -0.625 C 49.820312 -0.425781 49.585938 -0.253906 49.265625 -0.109375 C 48.941406 0.0351562 48.488281 0.144531 47.90625 0.21875 C 47.332031 0.289062 46.613281 0.328125 45.75 0.328125 C 44.84375 0.328125 44.101562 0.289062 43.53125 0.21875 C 42.957031 0.144531 42.503906 0.0351562 42.171875 -0.109375 C 41.847656 -0.253906 41.613281 -0.425781 41.46875 -0.625 C 41.332031 -0.820312 41.265625 -1.066406 41.265625 -1.359375 L 41.265625 -29.84375 C 41.265625 -32.625 41.046875 -34.859375 40.609375 -36.546875 C 40.179688 -38.242188 39.550781 -39.707031 38.71875 -40.9375 C 37.882812 -42.164062 36.8125 -43.101562 35.5 -43.75 C 34.1875 -44.394531 32.664062 -44.71875 30.9375 -44.71875 C 28.695312 -44.71875 26.457031 -43.925781 24.21875 -42.34375 C 21.988281 -40.757812 19.648438 -38.429688 17.203125 -35.359375 L 17.203125 -1.359375 C 17.203125 -1.066406 17.128906 -0.820312 16.984375 -0.625 C 16.835938 -0.425781 16.601562 -0.253906 16.28125 -0.109375 C 15.957031 0.0351562 15.503906 0.144531 14.921875 0.21875 C 14.347656 0.289062 13.609375 0.328125 12.703125 0.328125 C 11.835938 0.328125 11.117188 0.289062 10.546875 0.21875 C 9.972656 0.144531 9.515625 0.0351562 9.171875 -0.109375 C 8.828125 -0.253906 8.59375 -0.425781 8.46875 -0.625 C 8.34375 -0.820312 8.28125 -1.066406 8.28125 -1.359375 L 8.28125 -73.59375 C 8.28125 -73.882812 8.34375 -74.140625 8.46875 -74.359375 C 8.59375 -74.578125 8.828125 -74.753906 9.171875 -74.890625 C 9.515625 -75.035156 9.972656 -75.144531 10.546875 -75.21875 C 11.117188 -75.289062 11.835938 -75.328125 12.703125 -75.328125 C 13.609375 -75.328125 14.347656 -75.289062 14.921875 -75.21875 C 15.503906 -75.144531 15.957031 -75.035156 16.28125 -74.890625 C 16.601562 -74.753906 16.835938 -74.578125 16.984375 -74.359375 C 17.128906 -74.140625 17.203125 -73.882812 17.203125 -73.59375 L 17.203125 -44.453125 C 19.753906 -47.148438 22.328125 -49.15625 24.921875 -50.46875 C 27.523438 -51.789062 30.140625 -52.453125 32.765625 -52.453125 C 36.015625 -52.453125 38.75 -51.898438 40.96875 -50.796875 C 43.1875 -49.703125 44.976562 -48.234375 46.34375 -46.390625 C 47.71875 -44.554688 48.703125 -42.40625 49.296875 -39.9375 C 49.890625 -37.46875 50.1875 -34.484375 50.1875 -30.984375 Z M 50.1875 -1.359375 "/></g></g></g></svg>