<?xml version="1.0" encoding="utf-8"?>
<!-- Generator: Adobe Illustrator 24.3.0, SVG Export Plug-In . SVG Version: 6.00 Build 0)  -->
<svg version="1.1" id="Layer_1" xmlns="http://www.w3.org/2000/svg" xmlns:xlink="http://www.w3.org/1999/xlink" x="0px" y="0px"
	 viewBox="0 0 1920 800" style="enable-background:new 0 0 1920 800;" xml:space="preserve">
<style type="text/css">
	.st0{fill:#004AAD;}
</style>
<g>
	<path class="st0" d="M1675,351.2c13.2-10.7,24.3-21.1,36.8-29.4c41.4-27.7,85-30.7,129-6.9c27.3,14.7,41.3,40.4,46.8,70
		c3.5,18.5,4.9,37.7,5.1,56.5c0.6,63.2,0.1,126.5,0.4,189.7c0.1,8.9-3.2,13.8-11.5,14.3c-11.6,0.7-23.3,1.1-34.8-0.1
		c-10.1-1-11.6-4.2-11.6-15c0-53.2,0.3-106.4-0.2-159.6c-0.2-21.6-0.2-43.6-3.9-64.7c-4.9-27.8-19.6-49.5-49.8-55.5
		c-22-4.3-42.5,1-59.5,15.1c-15.7,13.2-29.8,28.3-44.1,43.1c-2.3,2.4-2.6,7.5-2.7,11.3c-0.1,70.3-0.3,140.6,0.1,210.9
		c0,8.7-2.9,14.1-11.3,14.4c-12.6,0.4-25.3-0.2-38-0.8c-5.9-0.3-8.3-4.4-8.5-10c-0.1-2.4-0.1-4.9-0.1-7.3c0-153.1,0-306.1,0-459.2
		c0-16.5,2.6-19.1,19.4-19.5c7.6-0.2,15.2-0.3,22.8,0.1c12.7,0.7,15.5,3.9,15.5,16.4c0,58.3,0,116.7,0,175
		C1675,343.2,1675,346.4,1675,351.2z"/>
	<path class="st0" d="M84.9,351.8c8.1-7.3,14.5-13.4,21.3-19.1c25.5-21.3,53.9-34.4,88.2-33.2c55.9,2,94.2,33.9,103.5,89.1
		c3.1,18.1,4.5,36.6,4.7,55c0.6,62.1,0.2,124.3,0.2,186.4c0,11.2-2.1,14.5-13.1,15.5c-10.7,1-21.7,0.9-32.5-0.1
		c-10.5-1-12.1-3.9-12.1-14.4c0-59.7,0-119.4,0-179.1c0-19.3-1-38.4-7.1-57c-16-49.3-63.1-53.9-94.3-37.3
		c-23.2,12.4-40.6,31.4-56.8,51.5c-1.9,2.3-1.8,6.6-1.8,10c-0.1,70.6-0.2,141.1,0.1,211.7c0,8.7-3.4,13.9-11.6,14.4
		c-11.6,0.7-23.3,0.8-34.9,0.1c-8-0.5-11.7-5-11.7-14.1c0.4-81.7,0.2-163.4,0.2-245c0-74.1,0-148.2,0-222.2c0-11,1.8-14,12.5-14.9
		c10.7-1,21.7-1,32.4,0c10.7,1,12.9,4.5,12.9,15.7c0,58.9,0,117.8,0,176.7C84.9,344.2,84.9,347.1,84.9,351.8z"/>
	<path class="st0" d="M1080.6,486.5c-33.9,0-67.8,0.2-101.7-0.1c-6.9-0.1-9.4,2.2-8.4,8.9c2.6,16,3.5,32.5,8.1,47.9
		c10.6,35.3,36.3,54.1,72,59.6c39.7,6.2,77.6-1.8,114.3-16.6c22.4-9,25.7-6.8,25.5,17.6c-0.2,18.1-2.6,22.4-19.3,28.7
		c-51.6,19.5-104.6,25.9-158.5,11.7c-48.6-12.8-79.8-45.2-93-93.2c-14.8-53.7-15-107.9,5.7-160.4c20.3-51.4,58.2-81.7,113.4-89
		c31.1-4.1,61.8-2.6,90.7,10.7c40.1,18.5,62.2,51.6,69.8,93.9c3.7,20.6,3.7,42,3.6,63c-0.1,11.3-9,17.4-20.5,17.4
		C1148.4,486.5,1114.5,486.4,1080.6,486.5z M971.4,444.7c3.8,0,7,0,10.2,0c47.9,0,95.9,0,143.8,0c21.4,0,21.4,0,19.8-21.3
		c-3.8-49.9-34.5-78.4-83.9-79.2C999.9,343.1,970.5,399.1,971.4,444.7z"/>
	<path class="st0" d="M1278.3,479.6c1.2-31.4,4.4-62.2,16.3-91.6c19.7-48.8,54.8-78.3,107-86.3c39.1-5.9,75.9,0.2,109.6,22.1
		c21.2,13.8,21.5,31.5,16.5,54.5c-1.7,7.8-8.2,9.6-15.3,5c-7.5-4.9-14.3-10.7-21.8-15.6c-23.9-15.8-49.8-23.1-78.6-18.4
		c-28,4.6-46,21.4-57.9,45.9c-8.5,17.5-12.2,36.4-13.7,55.7c-2.4,31.5-1.2,62.7,8.8,93.2c20,61,82.9,66.8,119.7,48.9
		c15.2-7.4,29.1-17.6,43.2-27.1c11.8-8,16.1-6.9,18.1,7.3c1.2,8.2,1.1,16.7,0.8,25.1c-0.4,9.5-5.3,16.9-13.1,22.3
		c-35.2,24.8-74.3,34-116.9,29.4c-33.3-3.6-62.3-15.9-84.2-42.1c-18.9-22.6-29.1-49.4-33.5-78.2
		C1280.9,513.1,1280,496.3,1278.3,479.6z"/>
	<path class="st0" d="M752.2,550.7c0,5.6,1.3,11.3,2.6,16.8c7.2,30.5,26.5,36.6,53,32.8c8.2-1.2,16.1-4.6,24-7.2
		c8-2.6,11.7-1.2,12.3,7.1c0.8,9.6,0.8,19.6-0.9,29c-0.9,4.7-5.6,10.8-9.9,12.4c-33.5,12.5-67.4,13.7-99.9-2.7
		c-24.8-12.5-33.8-36.3-37.3-62.2c-1.8-13.6-2.4-27.5-2.4-41.3c-0.3-57.2-0.2-114.5,0-171.7c0-7.9-1.7-11.3-10.3-10.7
		c-10.8,0.8-21.7-0.2-32.5,0.3c-8,0.4-12.3-3.9-12.9-10.5c-0.8-9-0.1-18.3,0.7-27.4c0.6-6.7,5-9.6,11.9-9.4
		c10.6,0.3,21.1,0.1,31.7,0.1c11.3,0,11.3,0,11.4-11.7c0-20.1,0-40.1,0-60.2c0-10.6,2.4-14.2,12.7-15.1c10.7-0.9,21.7-0.9,32.4,0.1
		c9.8,0.9,12.2,4.7,12.2,14.6c0,20.9,0.3,41.8-0.1,62.7c-0.1,7.3,1.8,10,9.5,9.8c23.3-0.5,46.6,0.2,69.9-0.3
		c8.5-0.2,13.2,3.2,14,11.1c0.8,8.3,1,16.8,0.1,25.1c-0.8,7.5-5.4,11.5-14,11.3c-23.6-0.5-47.2,0-70.7-0.3c-6.8-0.1-8.9,2.2-8.8,8.9
		c0.3,29.3,0.1,58.6,0.1,87.9C751.3,449.8,751.9,517.1,752.2,550.7z"/>
	<path class="st0" d="M469.7,361c11.7-13.3,21.6-25.4,32.4-36.6c26.2-27.2,57.7-30.2,92-18.9c6.2,2,9.6,6.1,9.8,12.4
		c0.3,11.1,0.5,22.3-0.1,33.3c-0.6,10.7-4.8,12.5-15.1,9.8c-12.2-3.1-24.7-7.1-37.1-7.1c-19.3,0-33,12.8-44.5,26.8
		c-10.5,12.7-19.8,26.5-29.1,40.1c-1.9,2.8-2.4,7.1-2.4,10.7c-0.1,66.4-0.3,132.9,0.1,199.3c0,9-3.5,14-11.6,14.3
		c-12.9,0.5-25.8-0.2-38.7-1.1c-5.3-0.3-7.8-4.4-7.7-9.8c0-1.6,0-3.3,0-4.9c0-103.1,0-206.1,0-309.2c0-12.3,2.8-15.4,15.1-15.7
		c7.6-0.2,15.2-0.2,22.8,0c11,0.3,14,3.4,14.1,14.2C469.7,332.4,469.7,345.9,469.7,361z"/>
</g>
</svg>
