<svg width="175" height="48" viewBox="0 0 175 48" fill="none" xmlns="http://www.w3.org/2000/svg">
<path d="M15.8392 7.2002H36.0775L21.1983 29.2542H0.959961L15.8392 7.2002Z" fill="#007AFF"/>
<path d="M16.726 31.298L10.9629 39.8401H32.1612L47.0405 17.7861H31.3948L22.2786 31.298H16.726Z" fill="#312ECB"/>
<path d="M67.6814 35.5H63.947L72.322 12.2188H76.3845L84.7439 35.5H81.0251L74.4314 16.4531H74.2439L67.6814 35.5ZM68.3064 26.3906H80.3845V29.3281H68.3064V26.3906ZM90.2439 12.2188V35.5H86.7283V12.2188H90.2439ZM103.853 35.8125C101.749 35.8125 99.9001 35.3281 98.3064 34.3594C96.7231 33.3906 95.4835 32.0156 94.5876 30.2344C93.7022 28.4427 93.2595 26.3229 93.2595 23.875C93.2595 21.3958 93.7074 19.2656 94.6033 17.4844C95.5095 15.6927 96.7491 14.3177 98.322 13.3594C99.8949 12.3906 101.687 11.9062 103.697 11.9062C104.947 11.9062 106.114 12.0938 107.197 12.4688C108.291 12.8333 109.26 13.3594 110.103 14.0469C110.957 14.7344 111.661 15.5469 112.213 16.4844C112.775 17.4115 113.155 18.4427 113.353 19.5781H109.76C109.541 18.8802 109.249 18.2604 108.885 17.7188C108.52 17.1667 108.082 16.6979 107.572 16.3125C107.062 15.9167 106.483 15.6198 105.838 15.4219C105.202 15.2135 104.494 15.1094 103.713 15.1094C102.4 15.1094 101.218 15.4479 100.166 16.125C99.1137 16.7917 98.2804 17.776 97.6658 19.0781C97.0512 20.3802 96.7439 21.974 96.7439 23.8594C96.7439 25.7448 97.0512 27.3385 97.6658 28.6406C98.2804 29.9427 99.1241 30.9323 100.197 31.6094C101.27 32.276 102.489 32.6094 103.853 32.6094C105.114 32.6094 106.213 32.3542 107.15 31.8438C108.088 31.3229 108.817 30.5938 109.338 29.6562C109.858 28.7188 110.119 27.6094 110.119 26.3281L111.041 26.5H104.385V23.5938H113.541V26.25C113.541 28.2083 113.124 29.901 112.291 31.3281C111.468 32.7552 110.322 33.8594 108.853 34.6406C107.395 35.4219 105.728 35.8125 103.853 35.8125ZM123.9 35.8594C122.192 35.8594 120.713 35.4896 119.463 34.75C118.213 34.0104 117.249 32.9688 116.572 31.625C115.905 30.2708 115.572 28.6927 115.572 26.8906C115.572 25.099 115.9 23.5208 116.556 22.1562C117.223 20.7917 118.155 19.7292 119.353 18.9688C120.562 18.1979 121.978 17.8125 123.603 17.8125C124.593 17.8125 125.551 17.974 126.478 18.2969C127.405 18.6198 128.239 19.1302 128.978 19.8281C129.718 20.526 130.301 21.4323 130.728 22.5469C131.166 23.6615 131.385 25.0052 131.385 26.5781V27.7969H117.494V25.25H129.635L128.056 26.0938C128.056 25.0208 127.89 24.0729 127.556 23.25C127.223 22.4271 126.723 21.7865 126.056 21.3281C125.4 20.8594 124.582 20.625 123.603 20.625C122.624 20.625 121.786 20.8594 121.088 21.3281C120.4 21.7969 119.874 22.4167 119.51 23.1875C119.145 23.9583 118.963 24.8021 118.963 25.7188V27.4531C118.963 28.651 119.171 29.6667 119.588 30.5C120.004 31.3333 120.582 31.9688 121.322 32.4062C122.072 32.8438 122.942 33.0625 123.931 33.0625C124.577 33.0625 125.161 32.9688 125.681 32.7812C126.213 32.5938 126.671 32.3125 127.056 31.9375C127.442 31.5625 127.733 31.099 127.931 30.5469L131.15 31.1562C130.89 32.0938 130.431 32.9167 129.775 33.625C129.119 34.3333 128.291 34.8854 127.291 35.2812C126.301 35.6667 125.171 35.8594 123.9 35.8594ZM137.135 25.1406V35.5H133.76V18.0312H137.041V20.9062H137.275C137.671 19.9583 138.291 19.2083 139.135 18.6562C139.978 18.0938 141.062 17.8125 142.385 17.8125C143.572 17.8125 144.608 18.0625 145.494 18.5625C146.39 19.0521 147.082 19.7865 147.572 20.7656C148.072 21.7448 148.322 22.9583 148.322 24.4062V35.5H144.947V24.8125C144.947 23.5521 144.614 22.5625 143.947 21.8438C143.28 21.1146 142.374 20.75 141.228 20.75C140.447 20.75 139.744 20.9271 139.119 21.2812C138.504 21.625 138.02 22.1198 137.666 22.7656C137.312 23.4115 137.135 24.2031 137.135 25.1406ZM151.572 35.5V18.0312H154.947V35.5H151.572ZM153.275 15.3438C152.681 15.3438 152.176 15.1458 151.76 14.75C151.343 14.3542 151.135 13.8802 151.135 13.3281C151.135 12.7656 151.343 12.2865 151.76 11.8906C152.176 11.4948 152.681 11.2969 153.275 11.2969C153.858 11.2969 154.358 11.4948 154.775 11.8906C155.202 12.2865 155.416 12.7656 155.416 13.3281C155.416 13.8802 155.202 14.3542 154.775 14.75C154.358 15.1458 153.858 15.3438 153.275 15.3438ZM165.713 35.8594C164.004 35.8594 162.525 35.4896 161.275 34.75C160.025 34.0104 159.062 32.9688 158.385 31.625C157.718 30.2708 157.385 28.6927 157.385 26.8906C157.385 25.099 157.713 23.5208 158.369 22.1562C159.036 20.7917 159.968 19.7292 161.166 18.9688C162.374 18.1979 163.791 17.8125 165.416 17.8125C166.405 17.8125 167.364 17.974 168.291 18.2969C169.218 18.6198 170.051 19.1302 170.791 19.8281C171.53 20.526 172.114 21.4323 172.541 22.5469C172.978 23.6615 173.197 25.0052 173.197 26.5781V27.7969H159.306V25.25H171.447L169.869 26.0938C169.869 25.0208 169.702 24.0729 169.369 23.25C169.036 22.4271 168.536 21.7865 167.869 21.3281C167.213 20.8594 166.395 20.625 165.416 20.625C164.437 20.625 163.598 20.8594 162.9 21.3281C162.213 21.7969 161.687 22.4167 161.322 23.1875C160.957 23.9583 160.775 24.8021 160.775 25.7188V27.4531C160.775 28.651 160.983 29.6667 161.4 30.5C161.817 31.3333 162.395 31.9688 163.135 32.4062C163.885 32.8438 164.754 33.0625 165.744 33.0625C166.39 33.0625 166.973 32.9688 167.494 32.7812C168.025 32.5938 168.483 32.3125 168.869 31.9375C169.254 31.5625 169.546 31.099 169.744 30.5469L172.963 31.1562C172.702 32.0938 172.244 32.9167 171.588 33.625C170.931 34.3333 170.103 34.8854 169.103 35.2812C168.114 35.6667 166.983 35.8594 165.713 35.8594Z" fill="white"/>
</svg>
