<svg width="126" height="23" viewBox="0 0 126 23" fill="none" xmlns="http://www.w3.org/2000/svg">
<path d="M10.5591 0.299805H24.0514L14.1319 15.0025H0.639648L10.5591 0.299805Z" fill="black"/>
<path d="M11.1506 16.3654L7.30859 22.0601H21.4408L31.3603 7.35742H20.9298L14.8524 16.3654H11.1506Z" fill="black"/>
<path d="M43.9531 20H40.5664L46.7305 2.53906H50.6211L56.7734 20H53.3984L48.7344 6.125H48.5938L43.9531 20ZM44.0703 13.1562H53.2695V15.6875H44.0703V13.1562ZM61.3438 2.53906V20H58.1797V2.53906H61.3438ZM71.5273 20.2344C69.9258 20.2344 68.5156 19.8711 67.2969 19.1445C66.0859 18.418 65.1406 17.3867 64.4609 16.0508C63.7812 14.7148 63.4414 13.1289 63.4414 11.293C63.4414 9.41797 63.7891 7.80859 64.4844 6.46484C65.1875 5.12109 66.1406 4.09375 67.3438 3.38281C68.5469 2.66406 69.9102 2.30469 71.4336 2.30469C72.4023 2.30469 73.3008 2.44531 74.1289 2.72656C74.9648 3.00781 75.707 3.41016 76.3555 3.93359C77.0039 4.44922 77.5352 5.0625 77.9492 5.77344C78.3711 6.48438 78.6523 7.26562 78.793 8.11719H75.5703C75.4297 7.65625 75.2344 7.24219 74.9844 6.875C74.7422 6.50781 74.4453 6.19531 74.0938 5.9375C73.75 5.67187 73.3594 5.47266 72.9219 5.33984C72.4844 5.20703 72 5.14062 71.4688 5.14062C70.5391 5.14062 69.707 5.37891 68.9727 5.85547C68.2383 6.32422 67.6602 7.01562 67.2383 7.92969C66.8242 8.83594 66.6172 9.94531 66.6172 11.2578C66.6172 12.5781 66.8242 13.6953 67.2383 14.6094C67.6523 15.5234 68.2305 16.2188 68.9727 16.6953C69.7148 17.1641 70.5742 17.3984 71.5508 17.3984C72.4336 17.3984 73.1992 17.2305 73.8477 16.8945C74.4961 16.5508 74.9961 16.0664 75.3477 15.4414C75.6992 14.8164 75.875 14.0781 75.875 13.2266L76.6016 13.3438H71.8555V10.8711H78.9453V12.957C78.9453 14.457 78.6289 15.75 77.9961 16.8359C77.3633 17.9219 76.4844 18.7617 75.3594 19.3555C74.2422 19.9414 72.9648 20.2344 71.5273 20.2344ZM86.7734 20.2578C85.4609 20.2578 84.3281 19.9844 83.375 19.4375C82.4219 18.8828 81.6875 18.1016 81.1719 17.0938C80.6641 16.0859 80.4102 14.8984 80.4102 13.5312C80.4102 12.1797 80.6641 10.9961 81.1719 9.98047C81.6797 8.95703 82.3945 8.16016 83.3164 7.58984C84.2383 7.01953 85.3242 6.73438 86.5742 6.73438C87.3789 6.73438 88.1406 6.86328 88.8594 7.12109C89.5859 7.37891 90.2266 7.77734 90.7812 8.31641C91.3438 8.85547 91.7852 9.54297 92.1055 10.3789C92.4258 11.207 92.5859 12.1953 92.5859 13.3438V14.3047H81.8516V12.2305H91.0508L89.6094 12.8398C89.6094 12.0977 89.4961 11.4531 89.2695 10.9062C89.043 10.3516 88.707 9.91797 88.2617 9.60547C87.8164 9.29297 87.2617 9.13672 86.5977 9.13672C85.9336 9.13672 85.3672 9.29297 84.8984 9.60547C84.4297 9.91797 84.0742 10.3398 83.832 10.8711C83.5898 11.3945 83.4688 11.9805 83.4688 12.6289V14.0703C83.4688 14.8672 83.6055 15.5508 83.8789 16.1211C84.1602 16.6836 84.5508 17.1133 85.0508 17.4102C85.5586 17.707 86.1484 17.8555 86.8203 17.8555C87.2578 17.8555 87.6562 17.793 88.0156 17.668C88.3828 17.543 88.6953 17.3555 88.9531 17.1055C89.2188 16.8477 89.4219 16.5312 89.5625 16.1562L92.4453 16.4961C92.2578 17.2539 91.9102 17.918 91.4023 18.4883C90.9023 19.0508 90.2578 19.4883 89.4688 19.8008C88.6875 20.1055 87.7891 20.2578 86.7734 20.2578ZM97.3438 12.3359V20H94.2617V6.89844H97.2852V9.13672H97.4375C97.7344 8.40234 98.1992 7.82031 98.832 7.39062C99.4727 6.95313 100.285 6.73438 101.27 6.73438C102.176 6.73438 102.965 6.92578 103.637 7.30859C104.309 7.69141 104.828 8.25391 105.195 8.99609C105.57 9.73047 105.758 10.6211 105.758 11.668V20H102.676V12.1484C102.676 11.2734 102.449 10.5898 101.996 10.0977C101.543 9.59766 100.918 9.34766 100.121 9.34766C99.582 9.34766 99.1016 9.46484 98.6797 9.69922C98.2656 9.93359 97.9375 10.2734 97.6953 10.7188C97.4609 11.1562 97.3438 11.6953 97.3438 12.3359ZM108.043 20V6.89844H111.125V20H108.043ZM109.59 5.05859C109.098 5.05859 108.676 4.89453 108.324 4.56641C107.973 4.23828 107.797 3.84375 107.797 3.38281C107.797 2.91406 107.973 2.51562 108.324 2.1875C108.676 1.85938 109.098 1.69531 109.59 1.69531C110.074 1.69531 110.492 1.85938 110.844 2.1875C111.195 2.51562 111.371 2.91016 111.371 3.37109C111.371 3.83984 111.195 4.23828 110.844 4.56641C110.492 4.89453 110.074 5.05859 109.59 5.05859ZM119.211 20.2578C117.898 20.2578 116.766 19.9844 115.812 19.4375C114.859 18.8828 114.125 18.1016 113.609 17.0938C113.102 16.0859 112.848 14.8984 112.848 13.5312C112.848 12.1797 113.102 10.9961 113.609 9.98047C114.117 8.95703 114.832 8.16016 115.754 7.58984C116.676 7.01953 117.762 6.73438 119.012 6.73438C119.816 6.73438 120.578 6.86328 121.297 7.12109C122.023 7.37891 122.664 7.77734 123.219 8.31641C123.781 8.85547 124.223 9.54297 124.543 10.3789C124.863 11.207 125.023 12.1953 125.023 13.3438V14.3047H114.289V12.2305H123.488L122.047 12.8398C122.047 12.0977 121.934 11.4531 121.707 10.9062C121.48 10.3516 121.145 9.91797 120.699 9.60547C120.254 9.29297 119.699 9.13672 119.035 9.13672C118.371 9.13672 117.805 9.29297 117.336 9.60547C116.867 9.91797 116.512 10.3398 116.27 10.8711C116.027 11.3945 115.906 11.9805 115.906 12.6289V14.0703C115.906 14.8672 116.043 15.5508 116.316 16.1211C116.598 16.6836 116.988 17.1133 117.488 17.4102C117.996 17.707 118.586 17.8555 119.258 17.8555C119.695 17.8555 120.094 17.793 120.453 17.668C120.82 17.543 121.133 17.3555 121.391 17.1055C121.656 16.8477 121.859 16.5312 122 16.1562L124.883 16.4961C124.695 17.2539 124.348 17.918 123.84 18.4883C123.34 19.0508 122.695 19.4883 121.906 19.8008C121.125 20.1055 120.227 20.2578 119.211 20.2578Z" fill="black"/>
</svg>
