<svg width="150" height="25" viewBox="0 0 150 25" fill="none" xmlns="http://www.w3.org/2000/svg">
<path d="M10.5591 1.27979H24.0514L14.1319 15.9824H0.639648L10.5591 1.27979Z" fill="white"/>
<path d="M11.1506 17.3453L7.30859 23.0401H21.4408L31.3603 8.3374H20.9298L14.8524 17.3453H11.1506Z" fill="white"/>
<path d="M43.9531 20.98H40.5664L46.7305 3.51904H50.6211L56.7734 20.98H53.3984L48.7344 7.10498H48.5938L43.9531 20.98ZM44.0703 14.1362H53.2695V16.6675H44.0703V14.1362ZM61.3438 3.51904V20.98H58.1797V3.51904H61.3438ZM71.5273 21.2144C69.9258 21.2144 68.5156 20.8511 67.2969 20.1245C66.0859 19.3979 65.1406 18.3667 64.4609 17.0308C63.7812 15.6948 63.4414 14.1089 63.4414 12.2729C63.4414 10.3979 63.7891 8.78857 64.4844 7.44482C65.1875 6.10107 66.1406 5.07373 67.3438 4.36279C68.5469 3.64404 69.9102 3.28467 71.4336 3.28467C72.4023 3.28467 73.3008 3.42529 74.1289 3.70654C74.9648 3.98779 75.707 4.39014 76.3555 4.91357C77.0039 5.4292 77.5352 6.04248 77.9492 6.75342C78.3711 7.46436 78.6523 8.24561 78.793 9.09717H75.5703C75.4297 8.63623 75.2344 8.22217 74.9844 7.85498C74.7422 7.48779 74.4453 7.17529 74.0938 6.91748C73.75 6.65186 73.3594 6.45264 72.9219 6.31982C72.4844 6.18701 72 6.12061 71.4688 6.12061C70.5391 6.12061 69.707 6.35889 68.9727 6.83545C68.2383 7.3042 67.6602 7.99561 67.2383 8.90967C66.8242 9.81592 66.6172 10.9253 66.6172 12.2378C66.6172 13.5581 66.8242 14.6753 67.2383 15.5894C67.6523 16.5034 68.2305 17.1987 68.9727 17.6753C69.7148 18.144 70.5742 18.3784 71.5508 18.3784C72.4336 18.3784 73.1992 18.2104 73.8477 17.8745C74.4961 17.5308 74.9961 17.0464 75.3477 16.4214C75.6992 15.7964 75.875 15.0581 75.875 14.2065L76.6016 14.3237H71.8555V11.8511H78.9453V13.937C78.9453 15.437 78.6289 16.73 77.9961 17.8159C77.3633 18.9019 76.4844 19.7417 75.3594 20.3354C74.2422 20.9214 72.9648 21.2144 71.5273 21.2144ZM86.7734 21.2378C85.4609 21.2378 84.3281 20.9644 83.375 20.4175C82.4219 19.8628 81.6875 19.0815 81.1719 18.0737C80.6641 17.0659 80.4102 15.8784 80.4102 14.5112C80.4102 13.1597 80.6641 11.9761 81.1719 10.9604C81.6797 9.93701 82.3945 9.14014 83.3164 8.56982C84.2383 7.99951 85.3242 7.71436 86.5742 7.71436C87.3789 7.71436 88.1406 7.84326 88.8594 8.10107C89.5859 8.35889 90.2266 8.75732 90.7812 9.29639C91.3438 9.83545 91.7852 10.5229 92.1055 11.3589C92.4258 12.187 92.5859 13.1753 92.5859 14.3237V15.2847H81.8516V13.2104H91.0508L89.6094 13.8198C89.6094 13.0776 89.4961 12.4331 89.2695 11.8862C89.043 11.3315 88.707 10.8979 88.2617 10.5854C87.8164 10.2729 87.2617 10.1167 86.5977 10.1167C85.9336 10.1167 85.3672 10.2729 84.8984 10.5854C84.4297 10.8979 84.0742 11.3198 83.832 11.8511C83.5898 12.3745 83.4688 12.9604 83.4688 13.6089V15.0503C83.4688 15.8472 83.6055 16.5308 83.8789 17.1011C84.1602 17.6636 84.5508 18.0933 85.0508 18.3901C85.5586 18.687 86.1484 18.8354 86.8203 18.8354C87.2578 18.8354 87.6562 18.7729 88.0156 18.6479C88.3828 18.5229 88.6953 18.3354 88.9531 18.0854C89.2188 17.8276 89.4219 17.5112 89.5625 17.1362L92.4453 17.4761C92.2578 18.2339 91.9102 18.8979 91.4023 19.4683C90.9023 20.0308 90.2578 20.4683 89.4688 20.7808C88.6875 21.0854 87.7891 21.2378 86.7734 21.2378ZM97.3438 13.3159V20.98H94.2617V7.87842H97.2852V10.1167H97.4375C97.7344 9.38232 98.1992 8.80029 98.832 8.37061C99.4727 7.93311 100.285 7.71436 101.27 7.71436C102.176 7.71436 102.965 7.90576 103.637 8.28857C104.309 8.67139 104.828 9.23389 105.195 9.97607C105.57 10.7104 105.758 11.6011 105.758 12.6479V20.98H102.676V13.1284C102.676 12.2534 102.449 11.5698 101.996 11.0776C101.543 10.5776 100.918 10.3276 100.121 10.3276C99.582 10.3276 99.1016 10.4448 98.6797 10.6792C98.2656 10.9136 97.9375 11.2534 97.6953 11.6987C97.4609 12.1362 97.3438 12.6753 97.3438 13.3159ZM108.043 20.98V7.87842H111.125V20.98H108.043ZM109.59 6.03857C109.098 6.03857 108.676 5.87451 108.324 5.54639C107.973 5.21826 107.797 4.82373 107.797 4.36279C107.797 3.89404 107.973 3.49561 108.324 3.16748C108.676 2.83936 109.098 2.67529 109.59 2.67529C110.074 2.67529 110.492 2.83936 110.844 3.16748C111.195 3.49561 111.371 3.89014 111.371 4.35107C111.371 4.81982 111.195 5.21826 110.844 5.54639C110.492 5.87451 110.074 6.03857 109.59 6.03857ZM119.211 21.2378C117.898 21.2378 116.766 20.9644 115.812 20.4175C114.859 19.8628 114.125 19.0815 113.609 18.0737C113.102 17.0659 112.848 15.8784 112.848 14.5112C112.848 13.1597 113.102 11.9761 113.609 10.9604C114.117 9.93701 114.832 9.14014 115.754 8.56982C116.676 7.99951 117.762 7.71436 119.012 7.71436C119.816 7.71436 120.578 7.84326 121.297 8.10107C122.023 8.35889 122.664 8.75732 123.219 9.29639C123.781 9.83545 124.223 10.5229 124.543 11.3589C124.863 12.187 125.023 13.1753 125.023 14.3237V15.2847H114.289V13.2104H123.488L122.047 13.8198C122.047 13.0776 121.934 12.4331 121.707 11.8862C121.48 11.3315 121.145 10.8979 120.699 10.5854C120.254 10.2729 119.699 10.1167 119.035 10.1167C118.371 10.1167 117.805 10.2729 117.336 10.5854C116.867 10.8979 116.512 11.3198 116.27 11.8511C116.027 12.3745 115.906 12.9604 115.906 13.6089V15.0503C115.906 15.8472 116.043 16.5308 116.316 17.1011C116.598 17.6636 116.988 18.0933 117.488 18.3901C117.996 18.687 118.586 18.8354 119.258 18.8354C119.695 18.8354 120.094 18.7729 120.453 18.6479C120.82 18.5229 121.133 18.3354 121.391 18.0854C121.656 17.8276 121.859 17.5112 122 17.1362L124.883 17.4761C124.695 18.2339 124.348 18.8979 123.84 19.4683C123.34 20.0308 122.695 20.4683 121.906 20.7808C121.125 21.0854 120.227 21.2378 119.211 21.2378Z" fill="white"/>
</svg>
