<svg width="163" height="25" viewBox="0 0 163 25" fill="none" xmlns="http://www.w3.org/2000/svg">
<path d="M10.5601 1.27979H24.0523L14.1328 15.9824H0.640625L10.5601 1.27979Z" fill="#007AFF"/>
<path d="M11.1506 17.3453L7.30859 23.0401H21.4408L31.3603 8.3374H20.9298L14.8524 17.3453H11.1506Z" fill="#312ECB"/>
<path d="M48.2543 21.196C46.0783 21.196 44.3423 20.7 43.0463 19.708C41.7663 18.7 41.0143 17.284 40.7903 15.46H43.7903C43.9343 16.516 44.4063 17.34 45.2063 17.932C46.0063 18.508 47.0543 18.796 48.3503 18.796C49.4223 18.796 50.2383 18.604 50.7983 18.22C51.3743 17.82 51.6623 17.268 51.6623 16.564C51.6623 15.94 51.4863 15.436 51.1343 15.052C50.7823 14.668 50.1903 14.356 49.3583 14.116L46.2383 13.18C44.6543 12.7 43.4863 12.068 42.7343 11.284C41.9983 10.5 41.6303 9.51598 41.6303 8.33198C41.6303 7.33998 41.8863 6.47598 42.3983 5.73998C42.9103 5.00398 43.6303 4.43598 44.5583 4.03598C45.5023 3.63598 46.5983 3.43598 47.8463 3.43598C49.7663 3.43598 51.2943 3.90798 52.4303 4.85198C53.5823 5.77998 54.2383 7.04398 54.3983 8.64398H51.3983C51.2223 7.68398 50.8223 6.97998 50.1983 6.53198C49.5743 6.06798 48.7343 5.83598 47.6783 5.83598C46.7503 5.83598 46.0143 6.01998 45.4703 6.38798C44.9263 6.75598 44.6543 7.25998 44.6543 7.89998C44.6543 8.42798 44.8143 8.87598 45.1343 9.24398C45.4703 9.61198 46.0863 9.93198 46.9823 10.204L50.1503 11.164C51.7343 11.628 52.8863 12.26 53.6063 13.06C54.3263 13.86 54.6863 14.876 54.6863 16.108C54.6863 17.74 54.1183 18.996 52.9823 19.876C51.8623 20.756 50.2863 21.196 48.2543 21.196ZM64.5681 20.98C64.4881 20.66 64.4241 20.308 64.3761 19.924C64.3441 19.54 64.3281 19.076 64.3281 18.532H64.2321V12.724C64.2321 12.084 64.0481 11.604 63.6801 11.284C63.3281 10.948 62.7841 10.78 62.0481 10.78C61.3281 10.78 60.7521 10.916 60.3201 11.188C59.9041 11.444 59.6481 11.82 59.5521 12.316H56.6481C56.7761 11.18 57.3201 10.26 58.2801 9.55598C59.2401 8.85198 60.5281 8.49998 62.1441 8.49998C63.8241 8.49998 65.0961 8.88398 65.9601 9.65198C66.8241 10.404 67.2561 11.516 67.2561 12.988V18.532C67.2561 18.916 67.2801 19.308 67.3281 19.708C67.3921 20.108 67.4801 20.532 67.5921 20.98H64.5681ZM60.3201 21.22C59.0881 21.22 58.1041 20.916 57.3681 20.308C56.6481 19.684 56.2881 18.852 56.2881 17.812C56.2881 16.692 56.6961 15.804 57.5121 15.148C58.3281 14.492 59.4801 14.052 60.9681 13.828L64.7841 13.252V15.172L61.4721 15.676C60.7521 15.788 60.2081 15.988 59.8401 16.276C59.4881 16.564 59.3121 16.964 59.3121 17.476C59.3121 17.94 59.4801 18.3 59.8161 18.556C60.1521 18.796 60.6161 18.916 61.2081 18.916C62.0721 18.916 62.7921 18.7 63.3681 18.268C63.9441 17.836 64.2321 17.308 64.2321 16.684L64.5681 18.532C64.2481 19.412 63.7201 20.084 62.9841 20.548C62.2641 20.996 61.3761 21.22 60.3201 21.22ZM70.3189 20.98V3.69998H73.3429V20.98H70.3189ZM82.0493 21.22C80.7533 21.22 79.6173 20.948 78.6413 20.404C77.6813 19.86 76.9293 19.108 76.3853 18.148C75.8573 17.188 75.5933 16.084 75.5933 14.836C75.5933 13.588 75.8573 12.492 76.3853 11.548C76.9293 10.588 77.6813 9.84398 78.6413 9.31598C79.6013 8.77198 80.7213 8.49998 82.0013 8.49998C83.2173 8.49998 84.2733 8.75598 85.1693 9.26798C86.0653 9.76398 86.7613 10.468 87.2573 11.38C87.7533 12.292 88.0013 13.356 88.0013 14.572C88.0013 14.796 87.9933 15.004 87.9773 15.196C87.9613 15.388 87.9373 15.58 87.9053 15.772H77.4653V13.66H85.5773L84.9533 14.236C84.9533 13.084 84.6893 12.22 84.1613 11.644C83.6333 11.068 82.8973 10.78 81.9533 10.78C80.9293 10.78 80.1133 11.132 79.5053 11.836C78.9133 12.54 78.6173 13.556 78.6173 14.884C78.6173 16.196 78.9133 17.204 79.5053 17.908C80.1133 18.596 80.9693 18.94 82.0733 18.94C82.7133 18.94 83.2733 18.82 83.7533 18.58C84.2333 18.34 84.5853 17.972 84.8093 17.476H87.6653C87.2653 18.628 86.5853 19.54 85.6253 20.212C84.6813 20.884 83.4893 21.22 82.0493 21.22ZM95.0146 21.22C93.3186 21.22 91.9666 20.868 90.9586 20.164C89.9506 19.444 89.3986 18.452 89.3026 17.188H92.0626C92.1426 17.812 92.4386 18.284 92.9506 18.604C93.4626 18.924 94.1506 19.084 95.0146 19.084C95.7986 19.084 96.3826 18.964 96.7666 18.724C97.1666 18.468 97.3666 18.108 97.3666 17.644C97.3666 17.308 97.2546 17.036 97.0306 16.828C96.8066 16.604 96.3826 16.42 95.7586 16.276L93.7906 15.82C92.4466 15.532 91.4466 15.084 90.7906 14.476C90.1506 13.852 89.8306 13.076 89.8306 12.148C89.8306 11.012 90.2626 10.124 91.1266 9.48398C92.0066 8.82798 93.2146 8.49998 94.7506 8.49998C96.2706 8.49998 97.4866 8.82798 98.3986 9.48398C99.3266 10.124 99.8386 11.012 99.9346 12.148H97.1746C97.0946 11.652 96.8386 11.276 96.4066 11.02C95.9906 10.764 95.4146 10.636 94.6786 10.636C93.9906 10.636 93.4706 10.748 93.1186 10.972C92.7666 11.18 92.5906 11.492 92.5906 11.908C92.5906 12.228 92.7266 12.5 92.9986 12.724C93.2706 12.932 93.7266 13.116 94.3666 13.276L96.4786 13.756C97.6786 14.028 98.5826 14.5 99.1906 15.172C99.8146 15.844 100.127 16.636 100.127 17.548C100.127 18.716 99.6786 19.62 98.7826 20.26C97.8866 20.9 96.6306 21.22 95.0146 21.22ZM102.074 20.98V3.69998H109.826C111.09 3.69998 112.17 3.91598 113.066 4.34798C113.978 4.77998 114.674 5.38798 115.154 6.17198C115.65 6.95598 115.898 7.88398 115.898 8.95598C115.898 10.012 115.65 10.94 115.154 11.74C114.658 12.54 113.962 13.164 113.066 13.612C112.17 14.044 111.09 14.26 109.826 14.26H104.498V11.812H109.682C110.674 11.812 111.434 11.556 111.962 11.044C112.506 10.532 112.778 9.83598 112.778 8.95598C112.778 8.09198 112.506 7.41198 111.962 6.91598C111.434 6.41998 110.674 6.17198 109.682 6.17198H105.194V20.98H102.074ZM121.787 21.22C120.939 21.22 120.203 21.044 119.579 20.692C118.971 20.324 118.499 19.828 118.163 19.204C117.843 18.58 117.683 17.876 117.683 17.092V8.73998H120.707V16.468C120.707 17.22 120.891 17.788 121.259 18.172C121.643 18.556 122.179 18.748 122.867 18.748C123.491 18.748 124.035 18.604 124.499 18.316C124.979 18.028 125.355 17.628 125.627 17.116C125.915 16.588 126.059 15.996 126.059 15.34L126.371 18.268C125.971 19.164 125.371 19.884 124.571 20.428C123.787 20.956 122.859 21.22 121.787 21.22ZM126.155 20.98V18.1H126.059V8.73998H129.107V20.98H126.155ZM132.311 20.98V3.69998H135.335V20.98H132.311ZM143.226 21.22C141.53 21.22 140.178 20.868 139.17 20.164C138.162 19.444 137.61 18.452 137.514 17.188H140.274C140.354 17.812 140.65 18.284 141.162 18.604C141.674 18.924 142.362 19.084 143.226 19.084C144.01 19.084 144.594 18.964 144.978 18.724C145.378 18.468 145.578 18.108 145.578 17.644C145.578 17.308 145.466 17.036 145.242 16.828C145.018 16.604 144.594 16.42 143.97 16.276L142.002 15.82C140.658 15.532 139.658 15.084 139.002 14.476C138.362 13.852 138.042 13.076 138.042 12.148C138.042 11.012 138.474 10.124 139.338 9.48398C140.218 8.82798 141.426 8.49998 142.962 8.49998C144.482 8.49998 145.698 8.82798 146.61 9.48398C147.538 10.124 148.05 11.012 148.146 12.148H145.386C145.306 11.652 145.05 11.276 144.618 11.02C144.202 10.764 143.626 10.636 142.89 10.636C142.202 10.636 141.682 10.748 141.33 10.972C140.978 11.18 140.802 11.492 140.802 11.908C140.802 12.228 140.938 12.5 141.21 12.724C141.482 12.932 141.938 13.116 142.578 13.276L144.69 13.756C145.89 14.028 146.794 14.5 147.402 15.172C148.026 15.844 148.338 16.636 148.338 17.548C148.338 18.716 147.89 19.62 146.994 20.26C146.098 20.9 144.842 21.22 143.226 21.22ZM156.323 21.22C155.027 21.22 153.891 20.948 152.915 20.404C151.955 19.86 151.203 19.108 150.659 18.148C150.131 17.188 149.867 16.084 149.867 14.836C149.867 13.588 150.131 12.492 150.659 11.548C151.203 10.588 151.955 9.84398 152.915 9.31598C153.875 8.77198 154.995 8.49998 156.275 8.49998C157.491 8.49998 158.547 8.75598 159.443 9.26798C160.339 9.76398 161.035 10.468 161.531 11.38C162.027 12.292 162.275 13.356 162.275 14.572C162.275 14.796 162.267 15.004 162.251 15.196C162.235 15.388 162.211 15.58 162.179 15.772H151.739V13.66H159.851L159.227 14.236C159.227 13.084 158.963 12.22 158.435 11.644C157.907 11.068 157.171 10.78 156.227 10.78C155.203 10.78 154.387 11.132 153.779 11.836C153.187 12.54 152.891 13.556 152.891 14.884C152.891 16.196 153.187 17.204 153.779 17.908C154.387 18.596 155.243 18.94 156.347 18.94C156.987 18.94 157.547 18.82 158.027 18.58C158.507 18.34 158.859 17.972 159.083 17.476H161.939C161.539 18.628 160.859 19.54 159.899 20.212C158.955 20.884 157.763 21.22 156.323 21.22Z" fill="#010609"/>
</svg>
